<svg xmlns="http://www.w3.org/2000/svg" fill="none" viewBox="0 0 1243 865" width="100%" height="100%" preserveAspectRatio="none">
    <g id="Background" clip-path="url(#clip0_38_2)">
        <path fill="#121212" d="M0 0h1243v865H0z"/>
        <g id="Group">
        <path id="Right" fill="#292929" d="m759 244 1195 48-104 35-1195-48 104-35Zm-75-53 1195 48-103 35-1196-48 104-35Zm-74-53 1195 48-103 35-1196-48 104-35Zm149 256 1196 48-104 34-1195-48 103-34Zm-75-54 1196 48-104 35-1195-48 103-35Zm-74-52 1196 48-104 34-1195-48 103-34Zm150 255 1195 48-103 35-1196-48 104-35Zm-75-53 1195 48-103 34-1196-48 104-34Zm-74-53 1195 48-103 35-1196-48 104-35Zm149 255 1196 48-104 35-1195-48 103-35Zm-74-53 1195 48-104 35-1195-48 104-35Zm-74-53 1195 48-104 35-1195-48 104-35Z"/>
        <path id="Left" fill="#1A1A1A" d="m-460 196 1195 47-103 35-1196-48 104-34Zm-75-54 1195 48-103 35-1196-48 104-35Zm-74-52 1195 47-103 35-1196-48 104-34Zm149 255 1196 48-104 34-1195-47 103-35Zm-75-53 1196 47-104 35-1195-48 103-34Zm-74-53 1196 48-104 34-1195-48 103-34Zm150 255 1195 48-103 35-1196-48 104-35Zm-75-53 1195 48-103 34-1196-47 104-35Zm-74-53 1195 48-103 35-1196-48 104-35Zm150 256 1195 47-104 35-1195-48 104-34Zm-75-54 1195 48-104 35-1195-48 104-35Zm-74-52 1195 47-104 35-1195-48 104-34Z"/>
        </g>
    </g>
    <defs>
        <clipPath id="clip0_38_2">
        <path fill="#fff" d="M0 0h1243v865H0z"/>
        </clipPath>
    </defs>
</svg>